#N canvas 471 294 450 441 10;
#X obj 9 50 ctlin;
#X obj 102 97 + 32;
#X obj 99 254 +;
#X obj 99 317 outlet;
#X floatatom 48 133 5 0 0 0 - - -;
#X floatatom 11 156 5 0 0 0 - - -;
#X floatatom 130 274 5 0 0 0 - - -;
#X obj 130 293 bng 15 250 50 0 empty empty empty 17 7 0 10 -262144
-1 -1;
#X obj 141 50 loadbang;
#X obj 141 71 i \$1;
#X obj 114 155 select;
#X obj 114 176 i;
#X obj 114 197 << 7;
#X obj 60 156 select;
#X obj 60 177 i;
#X obj 40 92 i;
#X obj 2 93 t b f;
#X connect 0 0 16 0;
#X connect 0 1 15 1;
#X connect 1 0 13 1;
#X connect 2 0 3 0;
#X connect 2 0 6 0;
#X connect 4 0 10 0;
#X connect 4 0 13 0;
#X connect 5 0 14 1;
#X connect 5 0 11 1;
#X connect 6 0 7 0;
#X connect 8 0 9 0;
#X connect 9 0 1 0;
#X connect 9 0 10 1;
#X connect 10 0 11 0;
#X connect 11 0 12 0;
#X connect 12 0 2 1;
#X connect 13 0 14 0;
#X connect 14 0 2 0;
#X connect 15 0 4 0;
#X connect 16 0 15 0;
#X connect 16 1 5 0;
