#N canvas 631 583 297 199 10;
#N canvas 1912 172 1440 817 (subpatch) 0;
#X obj 1623 619 dac~;
#X obj 1642 273 bp~ 100 10;
#X obj 133 115 vsl 15 128 0 1 0 0 empty empty empty 0 -9 0 10 -262144
-1 -1 6350 1;
#X msg 133 391 \$1 100;
#X obj 153 115 vsl 15 128 0 1 0 0 empty empty empty 0 -9 0 10 -262144
-1 -1 3810 1;
#X msg 153 331 \$1 100;
#X obj 173 115 vsl 15 128 0 1 0 0 empty empty empty 0 -9 0 10 -262144
-1 -1 2540 1;
#X msg 173 271 \$1 100;
#X msg 133 49 0.5;
#X msg 153 29 0.3;
#X obj 196 114 bng 15 250 50 0 reset null_reset Reset 17 7 0 10 -262144
-1 -1;
#X obj 202 -34 bang;
#X obj 202 -56 loadbang;
#X floatatom 1538 637 5 0 0 0 - - -;
#X obj 1538 615 env~ 4096;
#X obj 196 230 tgl 15 0 null_clip_light clip_light Clip 17 7 0 10 -166441
-262144 -1 0 1;
#X msg 1579 733 \; clip_light color \$1;
#X obj 1564 684 route 0 1;
#X msg 1599 708 13;
#X obj 1479 684 s clip_light;
#X obj 1642 315 *~;
#X obj 1642 336 throw~ mix;
#X obj 1642 252 bp~ 100 10;
#X obj 1642 161 noise~;
#X obj 1524 178 osc~;
#X obj 1524 220 *~;
#X obj 1524 241 throw~ mix;
#X obj 1403 174 phasor~;
#X obj 1403 216 *~;
#X obj 1403 237 throw~ mix;
#X obj 113 115 vsl 15 128 0 1.5 0 0 empty empty empty 0 -9 0 10 -262144
-1 -1 4233 1;
#X msg 113 451 \$1 100;
#X obj 1629 592 *~;
#X msg 113 69 0.5;
#X obj 1538 656 > 95;
#X msg 173 9 0.2;
#X obj 113 493 s~ v_master;
#X obj 113 472 line~;
#X obj 133 433 s~ v_bp;
#X obj 133 412 line~;
#X obj 153 352 line~;
#X obj 153 373 s~ v_osc;
#X obj 173 313 s~ v_ph;
#X obj 173 292 line~;
#X obj 1423 195 r~ v_ph;
#X obj 1544 199 r~ v_osc;
#X obj 1662 294 r~ v_bp;
#X obj 196 159 tgl 15 0 invert null_invert Invert 17 7 0 10 -262144
-1 -1 0 1;
#X obj 196 140 tgl 15 0 side_sel null_side_sel SideSel 17 7 0 10 -262144
-1 -1 0 1;
#X obj 259 -57 r reset;
#X obj 601 197 r side_sel;
#X text 351 -55 UI;
#X text 1514 87 SYNTHESIS;
#X text 817 95 MIDI;
#X obj 540 300 CC;
#X obj 540 321 expr abs($f1 - 10000*$f2);
#X obj 640 300 r invert;
#X obj 700 300 CC;
#X obj 700 321 expr abs($f1 - 10000*$f2);
#X obj 800 300 r invert;
#X obj 601 218 select 0 1;
#X obj 571 177 loadbang;
#X msg 571 198 0;
#X msg 540 280 16;
#X msg 570 280 17;
#X msg 700 280 16;
#X msg 730 280 17;
#X obj 1726 238 r bp_q;
#X obj 1016 279 expr max(0 \, $f1 + 100);
#X obj 1016 237 CC 17;
#X obj 1056 237 CC 16;
#X obj 1016 258 -;
#X floatatom 1016 300 5 0 0 0 - - -;
#X text 1097 292 100 = approx finger width found experimentally;
#X obj 1016 383 s bp_q;
#X obj 1016 341 / 2000;
#X obj 1726 259 / 2;
#X floatatom 196 183 5 0 0 1 Freq_min range_min_init range_min;
#X floatatom 196 202 5 0 0 1 Freq_max range_max_init range_max;
#X obj 723 434 min;
#X obj 751 434 max;
#X obj 717 365 r range_min;
#X obj 735 385 r range_max;
#X obj 580 455 expr $f1*($f4-$f3)/10000+$f3 \; $f2*($f4-$f3)/10000+$f3
;
#X obj 1670 211 expr ($f1+$f2)/2;
#X obj 717 623 send fqB;
#X obj 557 621 send fqA;
#X obj 1670 190 r fqA;
#X obj 1736 190 r fqB;
#X obj 1403 153 r fqA;
#X obj 1524 157 r fqB;
#X msg 222 30 300;
#X obj 222 51 s range_min_init;
#X msg 332 30 1000;
#X obj 332 51 s range_max_init;
#X obj 1749 496 ctlin 7;
#X obj 1749 517 != 0;
#N canvas 686 263 450 300 adsr 0;
#X obj 85 19 inlet;
#X obj 173 5 inlet;
#X obj 134 206 outlet~;
#X obj 133 178 line~;
#X obj 125 95 del 200;
#X msg 125 116 1 2500;
#X msg 135 74 stop;
#X obj 173 26 bang;
#X obj 85 40 bang;
#X obj 173 47 t b b;
#X msg 221 121 0 1000;
#X msg 39 117 1 1000;
#X connect 0 0 8 0;
#X connect 1 0 7 0;
#X connect 3 0 2 0;
#X connect 4 0 5 0;
#X connect 6 0 4 0;
#X connect 7 0 9 0;
#X connect 8 0 11 0;
#X connect 8 0 4 0;
#X connect 9 0 10 0;
#X connect 9 1 6 0;
#X connect 10 0 3 0;
#X connect 11 0 3 0;
#X restore 1748 562 pd adsr;
#X obj 1749 538 route 1 0;
#X obj 1629 508 catch~ mix;
#X obj 1629 550 *~;
#X obj 1649 529 r~ v_master;
#X text 1636 474 OUTPUT;
#X obj 1016 362 + 0;
#X obj 1016 320 expr max(0 \, 2250 - $f1);
#X obj 959 350 s conj;
#X obj 796 515 r conj;
#X obj 763 560 spigot;
#X obj 796 536 == 0;
#X obj 696 515 r conj;
#X obj 663 560 spigot;
#X obj 696 536 == 1;
#X obj 959 329 == 0;
#X msg 1560 708 1;
#X obj 735 406 t b f;
#X connect 1 0 20 0;
#X connect 2 0 3 0;
#X connect 3 0 39 0;
#X connect 4 0 5 0;
#X connect 5 0 40 0;
#X connect 6 0 7 0;
#X connect 7 0 43 0;
#X connect 8 0 2 0;
#X connect 9 0 4 0;
#X connect 11 0 35 0;
#X connect 11 0 9 0;
#X connect 11 0 8 0;
#X connect 11 0 33 0;
#X connect 11 0 91 0;
#X connect 11 0 93 0;
#X connect 12 0 11 0;
#X connect 13 0 34 0;
#X connect 14 0 13 0;
#X connect 17 0 113 0;
#X connect 17 1 18 0;
#X connect 18 0 16 0;
#X connect 20 0 21 0;
#X connect 22 0 1 0;
#X connect 23 0 22 0;
#X connect 24 0 25 0;
#X connect 25 0 26 0;
#X connect 27 0 28 0;
#X connect 28 0 29 0;
#X connect 30 0 31 0;
#X connect 31 0 37 0;
#X connect 32 0 0 0;
#X connect 32 0 0 1;
#X connect 33 0 30 0;
#X connect 34 0 17 0;
#X connect 34 0 19 0;
#X connect 35 0 6 0;
#X connect 37 0 36 0;
#X connect 39 0 38 0;
#X connect 40 0 41 0;
#X connect 43 0 42 0;
#X connect 44 0 28 1;
#X connect 45 0 25 1;
#X connect 46 0 20 1;
#X connect 49 0 11 0;
#X connect 50 0 60 0;
#X connect 54 0 55 0;
#X connect 55 0 83 0;
#X connect 56 0 55 1;
#X connect 57 0 58 0;
#X connect 58 0 83 1;
#X connect 59 0 58 1;
#X connect 60 0 64 0;
#X connect 60 0 65 0;
#X connect 60 1 63 0;
#X connect 60 1 66 0;
#X connect 61 0 62 0;
#X connect 62 0 60 0;
#X connect 63 0 54 0;
#X connect 64 0 54 0;
#X connect 65 0 57 0;
#X connect 66 0 57 0;
#X connect 67 0 22 2;
#X connect 67 0 76 0;
#X connect 68 0 72 0;
#X connect 69 0 71 0;
#X connect 70 0 71 1;
#X connect 71 0 68 0;
#X connect 72 0 104 0;
#X connect 72 0 112 0;
#X connect 75 0 103 0;
#X connect 76 0 1 2;
#X connect 79 0 83 2;
#X connect 80 0 83 3;
#X connect 81 0 80 0;
#X connect 81 0 79 0;
#X connect 82 0 114 0;
#X connect 83 0 86 0;
#X connect 83 0 110 0;
#X connect 83 1 107 0;
#X connect 84 0 22 1;
#X connect 84 0 1 1;
#X connect 87 0 84 0;
#X connect 88 0 84 1;
#X connect 89 0 27 0;
#X connect 90 0 24 0;
#X connect 91 0 92 0;
#X connect 93 0 94 0;
#X connect 95 0 96 0;
#X connect 96 0 98 0;
#X connect 97 0 32 1;
#X connect 98 0 97 0;
#X connect 98 1 97 1;
#X connect 99 0 100 0;
#X connect 100 0 32 0;
#X connect 100 0 14 0;
#X connect 101 0 100 1;
#X connect 103 0 74 0;
#X connect 104 0 75 0;
#X connect 106 0 108 0;
#X connect 107 0 85 0;
#X connect 108 0 107 1;
#X connect 109 0 111 0;
#X connect 110 0 85 0;
#X connect 111 0 110 1;
#X connect 112 0 105 0;
#X connect 113 0 16 0;
#X connect 114 0 80 0;
#X connect 114 0 79 0;
#X connect 114 1 80 1;
#X connect 114 1 79 1;
#X coords 0 -1 1 1 195 155 2 100 100;
#X restore 12 8 pd;
