#N canvas -8 -8 1920 997 10;
#X obj 628 914 dac~;
#X obj 64 262 until;
#X obj 64 292 f;
#X obj 91 292 + 1;
#X msg 113 262 0;
#X obj 64 220 t b b;
#X obj 64 201 bng 15 250 50 0 empty loadModCalc empty 17 7 0 10 -262144
-1 -1;
#X obj 155 411 / 128;
#X obj 155 453 cos;
#X obj 155 432 * 6.28;
#X obj 155 474 atan;
#X msg 64 241 132;
#X msg 64 362 \; \$1 normalize;
#X obj 64 316 sel 131;
#X obj 64 340 symbol \$0mod;
#X obj 155 495 tabwrite \$0mod;
#X obj 287 262 until;
#X obj 287 292 f;
#X obj 314 292 + 1;
#X msg 336 262 0;
#X obj 287 220 t b b;
#X obj 287 201 bng 15 250 50 0 empty loadCarCalc empty 17 7 0 10 -262144
-1 -1;
#X msg 287 241 132;
#X msg 287 362 \; \$1 normalize;
#X obj 287 316 sel 131;
#X obj 287 340 symbol \$0car;
#X obj 378 495 tabwrite \$0car;
#X obj 606 181 f;
#X obj 553 205 -;
#X msg 553 283 -1;
#X msg 592 283 1;
#X obj 622 299 +;
#X obj 553 75 tgl 15 0 empty loadWalkOn empty 17 7 0 10 -262144 -1
-1 1 1;
#X obj 553 258 moses 0;
#X obj 553 124 random 64;
#X obj 553 181 32;
#X obj 553 150 t f b;
#X msg 657 165 32;
#X obj 606 388 line~;
#X obj 553 98 metro 500;
#X msg 606 360 \$1 500;
#X obj 657 199 vsl 15 64 0 64 0 0 empty empty empty 0 -9 0 10 -262144
-1 -1 2756 1;
#X obj 619 630 *~;
#X obj 603 653 +~;
#X obj 602 703 lop~ 1600;
#X obj 655 578 tabosc4~ \$0mod;
#X obj 602 680 tabosc4~ \$0car;
#X obj 603 522 *~;
#X obj 603 481 r~ \$0fund;
#X obj 619 501 r~ \$0walkL;
#X obj 688 542 r~ \$0harm;
#X obj 655 557 *~;
#X obj 657 615 *~;
#X obj 688 600 r~ \$0depth;
#X floatatom 102 86 5 0 0 0 - loadFund -, f 5;
#X msg 102 106 \$1 5;
#X obj 102 127 line~;
#X obj 102 148 s~ \$0fund;
#X floatatom 172 86 7 0 0 0 - loadHarm -, f 7;
#X msg 172 106 \$1 5;
#X obj 172 127 line~;
#X obj 172 148 s~ \$0harm;
#X floatatom 242 86 5 0 0 0 - loadDepth -, f 5;
#X msg 242 106 \$1 5;
#X obj 242 127 line~;
#X obj 242 148 s~ \$0depth;
#X obj 606 409 s~ \$0walkL;
#X obj 606 336 expr $f1 * ($f3 - $f2) / 64 + $f2;
#X obj 856 181 f;
#X obj 803 205 -;
#X msg 842 283 1;
#X obj 872 299 +;
#X obj 803 258 moses 0;
#X obj 803 124 random 64;
#X obj 803 181 32;
#X obj 803 150 t f b;
#X msg 907 165 32;
#X obj 856 388 line~;
#X msg 856 360 \$1 500;
#X obj 907 199 vsl 15 64 0 64 0 0 empty empty empty 0 -9 0 10 -262144
-1 -1 3347 1;
#X floatatom 953 299 7 0 0 0 - loadWalkLow -, f 7;
#X floatatom 1051 299 7 0 0 0 - loadWalkHigh -, f 7;
#X obj 856 336 expr $f1 * ($f3 - $f2) / 64 + $f2;
#X msg 803 283 -1;
#X obj 856 409 s~ \$0walkR;
#X obj 799 630 *~;
#X obj 783 653 +~;
#X obj 782 703 lop~ 1600;
#X obj 835 578 tabosc4~ \$0mod;
#X obj 782 680 tabosc4~ \$0car;
#X obj 783 522 *~;
#X obj 783 481 r~ \$0fund;
#X obj 868 542 r~ \$0harm;
#X obj 835 557 *~;
#X obj 837 615 *~;
#X obj 868 600 r~ \$0depth;
#X obj 799 501 r~ \$0walkR;
#X obj 155 332 t f f;
#X obj 378 332 t f f;
#N canvas 0 50 450 250 (subpatch) 0;
#X array \$0mod 131 float 2;
#X coords 0 1 131 -1 200 140 1;
#X restore 67 525 graph;
#N canvas 0 50 450 250 (subpatch) 0;
#X array \$0car 131 float 2;
#X coords 0 1 131 -1 200 140 1 0 0;
#X restore 287 525 graph;
#X obj 378 391 / 64;
#X obj 378 412 - 1;
#X obj 378 432 abs;
#X obj 378 473 - 1;
#X obj 378 452 * 2;
#X obj 155 352 mod 128;
#X obj 378 352 mod 128;
#X obj 628 791 *~;
#X obj 784 762 expr~ -($v1 - 1);
#X obj 668 791 *~;
#X obj 708 791 *~;
#X obj 748 791 *~;
#X obj 628 851 +~;
#X obj 668 821 +~;
#X obj 628 881 *~;
#X obj 668 881 *~;
#X floatatom 548 825 5 0 0 0 - loadVol -, f 5;
#X msg 548 845 \$1 5;
#X obj 548 866 line~;
#X floatatom 547 641 5 0 0 0 - loadSpread -, f 5;
#X msg 547 726 \$1 5;
#X obj 547 747 line~;
#X obj 140 748 loadbang;
#X obj 547 661 / 2;
#X obj 547 684 max 0;
#X obj 547 704 min 1;
#X msg 140 775 \; loadFund 220 \; loadHarm 1.5 \; loadDepth 0.4 \;
loadModCalc bang \; loadCarCalc bang \; loadWalkOn 1 \; loadWalkLow
0.99 \; loadWalkHigh 1.01 \; loadSpread 1.6 \; loadVol 0.05 \;;
#X connect 1 0 2 0;
#X connect 2 0 3 0;
#X connect 2 0 13 0;
#X connect 3 0 2 1;
#X connect 4 0 2 1;
#X connect 5 0 11 0;
#X connect 5 1 4 0;
#X connect 6 0 5 0;
#X connect 7 0 9 0;
#X connect 8 0 10 0;
#X connect 9 0 8 0;
#X connect 10 0 15 0;
#X connect 11 0 1 0;
#X connect 13 0 14 0;
#X connect 13 1 97 0;
#X connect 14 0 12 0;
#X connect 16 0 17 0;
#X connect 17 0 18 0;
#X connect 17 0 24 0;
#X connect 18 0 17 1;
#X connect 19 0 17 1;
#X connect 20 0 22 0;
#X connect 20 1 19 0;
#X connect 21 0 20 0;
#X connect 22 0 16 0;
#X connect 24 0 25 0;
#X connect 24 1 98 0;
#X connect 25 0 23 0;
#X connect 27 0 28 1;
#X connect 27 0 31 1;
#X connect 27 0 41 0;
#X connect 27 0 67 0;
#X connect 28 0 33 0;
#X connect 29 0 31 0;
#X connect 30 0 31 0;
#X connect 31 0 27 1;
#X connect 32 0 39 0;
#X connect 33 0 29 0;
#X connect 33 1 30 0;
#X connect 34 0 36 0;
#X connect 35 0 28 0;
#X connect 36 0 35 0;
#X connect 36 1 27 0;
#X connect 37 0 27 1;
#X connect 38 0 66 0;
#X connect 39 0 34 0;
#X connect 39 0 73 0;
#X connect 40 0 38 0;
#X connect 42 0 43 1;
#X connect 43 0 46 0;
#X connect 44 0 111 0;
#X connect 44 0 108 0;
#X connect 45 0 42 0;
#X connect 46 0 44 0;
#X connect 47 0 43 0;
#X connect 47 0 51 0;
#X connect 47 0 52 0;
#X connect 48 0 47 0;
#X connect 49 0 47 1;
#X connect 50 0 51 1;
#X connect 51 0 45 0;
#X connect 52 0 42 1;
#X connect 53 0 52 1;
#X connect 54 0 55 0;
#X connect 55 0 56 0;
#X connect 56 0 57 0;
#X connect 58 0 59 0;
#X connect 59 0 60 0;
#X connect 60 0 61 0;
#X connect 62 0 63 0;
#X connect 63 0 64 0;
#X connect 64 0 65 0;
#X connect 67 0 40 0;
#X connect 68 0 69 1;
#X connect 68 0 71 1;
#X connect 68 0 79 0;
#X connect 68 0 82 0;
#X connect 69 0 72 0;
#X connect 70 0 71 0;
#X connect 71 0 68 1;
#X connect 72 0 83 0;
#X connect 72 1 70 0;
#X connect 73 0 75 0;
#X connect 74 0 69 0;
#X connect 75 0 74 0;
#X connect 75 1 68 0;
#X connect 76 0 68 1;
#X connect 77 0 84 0;
#X connect 78 0 77 0;
#X connect 80 0 82 1;
#X connect 80 0 67 1;
#X connect 81 0 82 2;
#X connect 81 0 67 2;
#X connect 82 0 78 0;
#X connect 83 0 71 0;
#X connect 85 0 86 1;
#X connect 86 0 89 0;
#X connect 87 0 112 0;
#X connect 87 0 110 0;
#X connect 88 0 85 0;
#X connect 89 0 87 0;
#X connect 90 0 86 0;
#X connect 90 0 93 0;
#X connect 90 0 94 0;
#X connect 91 0 90 0;
#X connect 92 0 93 1;
#X connect 93 0 88 0;
#X connect 94 0 85 1;
#X connect 95 0 94 1;
#X connect 96 0 90 1;
#X connect 97 0 106 0;
#X connect 97 1 15 1;
#X connect 98 0 107 0;
#X connect 98 1 26 1;
#X connect 101 0 102 0;
#X connect 102 0 103 0;
#X connect 103 0 105 0;
#X connect 104 0 26 0;
#X connect 105 0 104 0;
#X connect 106 0 7 0;
#X connect 107 0 101 0;
#X connect 108 0 113 0;
#X connect 109 0 112 1;
#X connect 109 0 111 1;
#X connect 110 0 114 0;
#X connect 111 0 114 1;
#X connect 112 0 113 1;
#X connect 113 0 115 0;
#X connect 114 0 116 0;
#X connect 115 0 0 0;
#X connect 116 0 0 1;
#X connect 117 0 118 0;
#X connect 118 0 119 0;
#X connect 119 0 115 1;
#X connect 119 0 116 1;
#X connect 120 0 124 0;
#X connect 121 0 122 0;
#X connect 122 0 108 1;
#X connect 122 0 110 1;
#X connect 122 0 109 0;
#X connect 123 0 127 0;
#X connect 124 0 125 0;
#X connect 125 0 126 0;
#X connect 126 0 121 0;
