#N canvas 703 268 348 284 10;
#N canvas -8 -8 1920 997 (subpatch) 0;
#X obj 1048 917 dac~;
#X obj 484 235 until;
#X obj 484 265 f;
#X obj 511 265 + 1;
#X msg 533 235 0;
#X obj 484 193 t b b;
#X obj 484 174 bng 15 250 50 0 empty loadModCalc empty 17 7 0 10 -262144
-1 -1;
#X obj 575 384 / 128;
#X obj 575 426 cos;
#X obj 575 405 * 6.28;
#X obj 575 447 atan;
#X msg 484 214 132;
#X msg 484 335 \; \$1 normalize;
#X obj 484 289 sel 131;
#X obj 484 313 symbol \$0mod;
#X obj 575 468 tabwrite \$0mod;
#X obj 707 235 until;
#X obj 707 265 f;
#X obj 734 265 + 1;
#X msg 756 235 0;
#X obj 707 193 t b b;
#X obj 707 174 bng 15 250 50 0 empty loadCarCalc empty 17 7 0 10 -262144
-1 -1;
#X msg 707 214 132;
#X msg 707 335 \; \$1 normalize;
#X obj 707 289 sel 131;
#X obj 707 313 symbol \$0car;
#X obj 798 468 tabwrite \$0car;
#X obj 1026 154 f;
#X obj 973 178 -;
#X msg 973 256 -1;
#X msg 1012 256 1;
#X obj 1042 272 +;
#X obj 973 48 tgl 15 0 empty loadWalkOn empty 17 7 0 10 -262144 -1
-1 1 1;
#X obj 973 231 moses 0;
#X obj 973 97 random 64;
#X obj 973 154 32;
#X obj 973 123 t f b;
#X msg 1077 138 32;
#X obj 1026 361 line~;
#X obj 973 71 metro 500;
#X msg 1026 333 \$1 500;
#X obj 1077 172 vsl 15 64 0 64 0 0 empty empty empty 0 -9 0 10 -262144
-1 -1 3248 1;
#X obj 1039 603 *~;
#X obj 1023 626 +~;
#X obj 1022 676 lop~ 1600;
#X obj 1075 551 tabosc4~ \$0mod;
#X obj 1022 653 tabosc4~ \$0car;
#X obj 1023 495 *~;
#X obj 1023 454 r~ \$0fund;
#X obj 1039 474 r~ \$0walkL;
#X obj 1108 515 r~ \$0harm;
#X obj 1075 530 *~;
#X obj 1077 588 *~;
#X obj 1108 573 r~ \$0depth;
#X floatatom 522 59 5 0 0 0 - loadFund -;
#X msg 522 79 \$1 5;
#X obj 522 120 line~;
#X obj 522 141 s~ \$0fund;
#X floatatom 622 18 7 0 0 0 - loadHarm -;
#X obj 622 120 line~;
#X obj 622 141 s~ \$0harm;
#X floatatom 722 59 5 0 0 0 - loadDepth -;
#X msg 722 79 \$1 5;
#X obj 722 120 line~;
#X obj 722 141 s~ \$0depth;
#X obj 1026 382 s~ \$0walkL;
#X obj 1026 309 expr $f1 * ($f3 - $f2) / 64 + $f2;
#X obj 1276 154 f;
#X obj 1223 178 -;
#X msg 1262 256 1;
#X obj 1292 272 +;
#X obj 1223 231 moses 0;
#X obj 1223 97 random 64;
#X obj 1223 154 32;
#X obj 1223 123 t f b;
#X msg 1327 138 32;
#X obj 1276 361 line~;
#X msg 1276 333 \$1 500;
#X obj 1327 172 vsl 15 64 0 64 0 0 empty empty empty 0 -9 0 10 -262144
-1 -1 2067 1;
#X floatatom 1373 272 7 0 0 0 - loadWalkLow -;
#X floatatom 1471 272 7 0 0 0 - loadWalkHigh -;
#X obj 1276 309 expr $f1 * ($f3 - $f2) / 64 + $f2;
#X msg 1223 256 -1;
#X obj 1276 382 s~ \$0walkR;
#X obj 1219 603 *~;
#X obj 1203 626 +~;
#X obj 1202 676 lop~ 1600;
#X obj 1255 551 tabosc4~ \$0mod;
#X obj 1202 653 tabosc4~ \$0car;
#X obj 1203 495 *~;
#X obj 1203 454 r~ \$0fund;
#X obj 1288 515 r~ \$0harm;
#X obj 1255 530 *~;
#X obj 1257 588 *~;
#X obj 1288 573 r~ \$0depth;
#X obj 1219 474 r~ \$0walkR;
#X obj 575 305 t f f;
#X obj 798 305 t f f;
#N canvas 0 50 450 250 (subpatch) 0;
#X array \$0mod 131 float 2;
#X coords 0 1 131 -1 200 140 1;
#X restore 487 498 graph;
#N canvas 0 50 450 250 (subpatch) 0;
#X array \$0car 131 float 2;
#X coords 0 1 131 -1 200 140 1 0 0;
#X restore 707 498 graph;
#X obj 798 364 / 64;
#X obj 798 385 - 1;
#X obj 798 405 abs;
#X obj 798 446 - 1;
#X obj 798 425 * 2;
#X obj 575 325 mod 128;
#X obj 798 325 mod 128;
#X obj 1048 764 *~;
#X obj 1204 735 expr~ -($v1 - 1);
#X obj 1088 764 *~;
#X obj 1128 764 *~;
#X obj 1168 764 *~;
#X obj 1048 824 +~;
#X obj 1088 794 +~;
#X obj 1048 854 *~;
#X obj 1088 854 *~;
#X floatatom 968 777 5 0 0 0 - vol -;
#X msg 968 818 \$1 5;
#X obj 968 839 line~;
#X floatatom 967 614 5 0 0 0 - loadSpread -;
#X msg 967 699 \$1 5;
#X obj 967 720 line~;
#X obj 967 634 / 2;
#X obj 967 657 max 0;
#X obj 967 677 min 1;
#X floatatom 113 152 5 10 20000 1 freq_max load_f_max f_max;
#X floatatom 113 132 5 10 20000 1 freq_min load_f_min f_min;
#X obj 1681 134 CC 16;
#X obj 1786 135 CC 17;
#X obj 1681 157 expr ($f1 + $f2)/2;
#X obj 1853 241 r f_max;
#X obj 1853 262 ftom;
#X obj 1803 262 ftom;
#X obj 1803 241 r f_min;
#X obj 1652 308 mtof;
#X obj 1652 329 s loadFund;
#X obj 1657 410 CC 11;
#X floatatom 113 202 5 0 50 1 expr_max load_e_max e_max;
#X floatatom 113 182 5 0 50 1 expr_min load_e_min e_min;
#X obj 1702 452 r e_min;
#X obj 1794 407 r e_max;
#X obj 1652 286 expr $f1/10000 * ($f3 - $f2) + $f2;
#X obj 1657 493 s loadDepth;
#X obj 675 659 loadbang;
#X obj 675 700 t b b;
#X obj 675 680 bng 15 250 50 0 empty empty reset 17 7 0 10 -262144
-1 -1;
#X obj 1665 560 CC 16;
#X obj 1749 560 CC 17;
#X obj 1665 583 expr abs($f1 - $f2);
#X floatatom 113 252 5 0 20 1 max_value load_harm_val harm_val;
#X floatatom 113 232 5 0 50000 1 max_spread load_harm_spread harm_spread
;
#X obj 1680 603 r harm_spread;
#X obj 1665 624 min;
#X obj 1665 645 /;
#X obj 1725 645 r harm_val;
#X obj 1665 666 expr $f2 - $f1 * $f2;
#X obj 1665 708 s loadHarm;
#X obj 1665 687 max 0.1;
#X obj 1657 472 max 0.15;
#X obj 1657 431 expr $f1/10000 * ($f2 + 1) - 1;
#X floatatom 113 272 5 0 60000 1 glissando_time load_harm_time harm_time
;
#X msg 622 79 \$1 \$2;
#X obj 622 58 pack;
#X obj 643 37 r harm_time;
#X obj 1272 776 ctlin 7;
#X obj 1272 797 != 0;
#N canvas 686 263 450 300 adsr 0;
#X obj 85 19 inlet;
#X obj 173 5 inlet;
#X obj 134 206 outlet~;
#X obj 133 178 line~;
#X obj 125 95 del 200;
#X msg 125 116 1 2500;
#X msg 135 74 stop;
#X obj 173 26 bang;
#X obj 85 40 bang;
#X obj 173 47 t b b;
#X msg 39 117 1 50;
#X msg 221 121 0 2000;
#X connect 0 0 8 0;
#X connect 1 0 7 0;
#X connect 3 0 2 0;
#X connect 4 0 5 0;
#X connect 6 0 4 0;
#X connect 7 0 9 0;
#X connect 8 0 10 0;
#X connect 8 0 4 0;
#X connect 9 0 11 0;
#X connect 9 1 6 0;
#X connect 10 0 3 0;
#X connect 11 0 3 0;
#X restore 1271 842 pd adsr;
#X obj 1272 818 route 1 0;
#X obj 1048 884 *~;
#X obj 1088 884 *~;
#X obj 1631 160 CC 16;
#X obj 1631 225 spigot;
#X obj 1681 225 spigot;
#X obj 1661 205 == 0;
#X obj 1711 205 == 1;
#X obj 1661 182 r avg_sel;
#X obj 113 112 tgl 15 0 avg_sel load_avg_sel average_freq 17 7 0 10
-262144 -1 -1 0 1;
#X floatatom 1631 246 5 0 0 0 - - -;
#X floatatom 1681 246 5 0 0 0 - - -;
#X msg 724 751 \; loadFund 220 \; loadHarm 1.5 \; loadDepth 0.4 \;
loadModCalc bang \; loadCarCalc bang \; loadWalkOn 1 \; loadWalkLow
0.99 \; loadWalkHigh 1.01 \; loadSpread 1.6 \;;
#X floatatom 113 302 5 0 100 1 volume load_vol vol;
#X obj 562 100 line;
#X obj 562 121 s o_fund;
#X obj 662 121 s o_harm;
#X obj 662 100 line;
#X obj 762 100 line;
#X obj 762 121 s o_depth;
#X floatatom 263 112 5 0 0 1 fundamental o_fund _;
#X floatatom 263 132 5 0 0 1 harmonics o_harm _;
#X floatatom 263 152 5 0 0 1 depth o_depth _;
#X obj 263 172 tgl 15 0 null_clip_light clip_light Clip 17 7 0 10 -166441
-262144 -1 0 1;
#X obj 1100 920 env~ 4096;
#X msg 1184 1073 \; clip_light color \$1;
#X obj 1169 1024 route 0 1;
#X msg 1204 1048 13;
#X obj 1084 1024 s clip_light;
#X msg 1165 1048 1;
#X obj 1137 991 ||;
#X obj 1100 941 > 95;
#X obj 1170 920 env~ 4096;
#X obj 1170 941 > 95;
#X obj 1100 962 f;
#X obj 1170 962 t b f;
#X obj 968 797 / 80;
#X msg 560 780 \; load_f_min 100 \; load_f_max 4000 \; load_e_min 0.15
\; load_e_max 10 \; load_harm_spread 1000 \; load_harm_val 1.5 \; load_harm_time
750 \; load_vol 25 \; load_avg_sel 0 \;;
#X connect 1 0 2 0;
#X connect 2 0 3 0;
#X connect 2 0 13 0;
#X connect 3 0 2 1;
#X connect 4 0 2 1;
#X connect 5 0 11 0;
#X connect 5 1 4 0;
#X connect 6 0 5 0;
#X connect 7 0 9 0;
#X connect 8 0 10 0;
#X connect 9 0 8 0;
#X connect 10 0 15 0;
#X connect 11 0 1 0;
#X connect 13 0 14 0;
#X connect 13 1 96 0;
#X connect 14 0 12 0;
#X connect 16 0 17 0;
#X connect 17 0 18 0;
#X connect 17 0 24 0;
#X connect 18 0 17 1;
#X connect 19 0 17 1;
#X connect 20 0 22 0;
#X connect 20 1 19 0;
#X connect 21 0 20 0;
#X connect 22 0 16 0;
#X connect 24 0 25 0;
#X connect 24 1 97 0;
#X connect 25 0 23 0;
#X connect 27 0 28 1;
#X connect 27 0 31 1;
#X connect 27 0 41 0;
#X connect 27 0 66 0;
#X connect 28 0 33 0;
#X connect 29 0 31 0;
#X connect 30 0 31 0;
#X connect 31 0 27 1;
#X connect 32 0 39 0;
#X connect 33 0 29 0;
#X connect 33 1 30 0;
#X connect 34 0 36 0;
#X connect 35 0 28 0;
#X connect 36 0 35 0;
#X connect 36 1 27 0;
#X connect 37 0 27 1;
#X connect 38 0 65 0;
#X connect 39 0 34 0;
#X connect 39 0 72 0;
#X connect 40 0 38 0;
#X connect 42 0 43 1;
#X connect 43 0 46 0;
#X connect 44 0 110 0;
#X connect 44 0 107 0;
#X connect 45 0 42 0;
#X connect 46 0 44 0;
#X connect 47 0 43 0;
#X connect 47 0 51 0;
#X connect 47 0 52 0;
#X connect 48 0 47 0;
#X connect 49 0 47 1;
#X connect 50 0 51 1;
#X connect 51 0 45 0;
#X connect 52 0 42 1;
#X connect 53 0 52 1;
#X connect 54 0 55 0;
#X connect 55 0 56 0;
#X connect 55 0 181 0;
#X connect 56 0 57 0;
#X connect 58 0 162 0;
#X connect 59 0 60 0;
#X connect 61 0 62 0;
#X connect 62 0 63 0;
#X connect 62 0 185 0;
#X connect 63 0 64 0;
#X connect 66 0 40 0;
#X connect 67 0 68 1;
#X connect 67 0 70 1;
#X connect 67 0 78 0;
#X connect 67 0 81 0;
#X connect 68 0 71 0;
#X connect 69 0 70 0;
#X connect 70 0 67 1;
#X connect 71 0 82 0;
#X connect 71 1 69 0;
#X connect 72 0 74 0;
#X connect 73 0 68 0;
#X connect 74 0 73 0;
#X connect 74 1 67 0;
#X connect 75 0 67 1;
#X connect 76 0 83 0;
#X connect 77 0 76 0;
#X connect 79 0 81 1;
#X connect 79 0 66 1;
#X connect 80 0 81 2;
#X connect 80 0 66 2;
#X connect 81 0 77 0;
#X connect 82 0 70 0;
#X connect 84 0 85 1;
#X connect 85 0 88 0;
#X connect 86 0 111 0;
#X connect 86 0 109 0;
#X connect 87 0 84 0;
#X connect 88 0 86 0;
#X connect 89 0 85 0;
#X connect 89 0 92 0;
#X connect 89 0 93 0;
#X connect 90 0 89 0;
#X connect 91 0 92 1;
#X connect 92 0 87 0;
#X connect 93 0 84 1;
#X connect 94 0 93 1;
#X connect 95 0 89 1;
#X connect 96 0 105 0;
#X connect 96 1 15 1;
#X connect 97 0 106 0;
#X connect 97 1 26 1;
#X connect 100 0 101 0;
#X connect 101 0 102 0;
#X connect 102 0 104 0;
#X connect 103 0 26 0;
#X connect 104 0 103 0;
#X connect 105 0 7 0;
#X connect 106 0 100 0;
#X connect 107 0 112 0;
#X connect 108 0 111 1;
#X connect 108 0 110 1;
#X connect 109 0 113 0;
#X connect 110 0 113 1;
#X connect 111 0 112 1;
#X connect 112 0 114 0;
#X connect 113 0 115 0;
#X connect 114 0 168 0;
#X connect 115 0 169 0;
#X connect 116 0 203 0;
#X connect 117 0 118 0;
#X connect 118 0 114 1;
#X connect 118 0 115 1;
#X connect 119 0 122 0;
#X connect 120 0 121 0;
#X connect 121 0 107 1;
#X connect 121 0 109 1;
#X connect 121 0 108 0;
#X connect 122 0 123 0;
#X connect 123 0 124 0;
#X connect 124 0 120 0;
#X connect 127 0 129 0;
#X connect 128 0 129 1;
#X connect 129 0 172 0;
#X connect 130 0 131 0;
#X connect 131 0 141 2;
#X connect 132 0 141 1;
#X connect 133 0 132 0;
#X connect 134 0 135 0;
#X connect 136 0 159 0;
#X connect 139 0 158 1;
#X connect 140 0 159 1;
#X connect 141 0 134 0;
#X connect 143 0 145 0;
#X connect 144 0 204 0;
#X connect 144 1 179 0;
#X connect 145 0 144 0;
#X connect 146 0 148 0;
#X connect 147 0 148 1;
#X connect 148 0 152 0;
#X connect 151 0 152 1;
#X connect 151 0 153 1;
#X connect 152 0 153 0;
#X connect 153 0 155 0;
#X connect 154 0 155 1;
#X connect 155 0 157 0;
#X connect 157 0 156 0;
#X connect 158 0 142 0;
#X connect 159 0 158 0;
#X connect 161 0 59 0;
#X connect 161 0 184 0;
#X connect 162 0 161 0;
#X connect 163 0 162 1;
#X connect 164 0 165 0;
#X connect 165 0 167 0;
#X connect 166 0 169 1;
#X connect 166 0 168 1;
#X connect 167 0 166 0;
#X connect 167 1 166 1;
#X connect 168 0 0 0;
#X connect 168 0 191 0;
#X connect 169 0 0 1;
#X connect 169 0 199 0;
#X connect 170 0 171 0;
#X connect 171 0 177 0;
#X connect 172 0 178 0;
#X connect 173 0 171 1;
#X connect 174 0 172 1;
#X connect 175 0 173 0;
#X connect 175 0 174 0;
#X connect 177 0 141 0;
#X connect 178 0 141 0;
#X connect 181 0 182 0;
#X connect 184 0 183 0;
#X connect 185 0 186 0;
#X connect 191 0 198 0;
#X connect 193 0 196 0;
#X connect 193 1 194 0;
#X connect 194 0 192 0;
#X connect 196 0 192 0;
#X connect 197 0 195 0;
#X connect 197 0 193 0;
#X connect 198 0 201 0;
#X connect 199 0 200 0;
#X connect 200 0 202 0;
#X connect 201 0 197 0;
#X connect 202 0 201 0;
#X connect 202 1 197 1;
#X connect 203 0 117 0;
#X coords 0 -1 1 1 280 230 2 100 100;
#X restore 15 10 pd;
