#N canvas 800 230 933 540 10;
#X obj 36 155 CC 18;
#X obj 39 176 hsl 128 15 0 5000 0 0 empty empty empty -2 -8 0 10 -262144
-1 -1 10030 1;
#X floatatom 36 196 5 0 0 0 - - -;
#X floatatom 235 404 0 0 0 0 - - -;
#X floatatom 190 405 0 0 0 0 - - -;
#X text 232 444 velocity;
#X text 187 444 note;
#X text 34 137 Raw Channel A;
#X obj 189 176 hsl 128 15 0 5000 0 0 empty empty empty -2 -8 0 10 -262144
-1 -1 10005 1;
#X floatatom 186 196 5 0 0 0 - - -;
#X obj 39 66 hsl 128 15 0 10000 0 0 empty empty empty -2 -8 0 10 -262144
-1 -1 0 1;
#X floatatom 36 86 5 0 0 0 - - -;
#X obj 189 66 hsl 128 15 0 10000 0 0 empty empty empty -2 -8 0 10 -262144
-1 -1 0 1;
#X floatatom 186 86 5 0 0 0 - - -;
#X text 184 137 Raw Channel B;
#X text 184 27 Processed Channel B;
#X text 34 27 Processed Channel A;
#X obj 186 155 CC 19;
#X obj 186 45 CC 17;
#X obj 36 45 CC 16;
#X floatatom 39 405 5 0 0 0 - - -;
#X obj 39 425 bng 15 250 50 0 empty empty empty 17 7 0 10 -262144 -1
-1;
#X text 38 364 Ribbon Pressed?;
#X text 187 362 Quantizer (raw midi notes);
#X obj 190 381 notein 1;
#X obj 39 384 ctlin 7 1;
#X obj 60 425 tgl 15 0 empty empty empty 17 7 0 10 -262144 -1 -1 0
1;
#X obj 190 425 bng 15 250 50 0 empty empty empty 17 7 0 10 -262144
-1 -1;
#X obj 235 424 bng 15 250 50 0 empty empty empty 17 7 0 10 -262144
-1 -1;
#X obj 39 286 hsl 128 15 0 10000 0 0 empty empty empty -2 -8 0 10 -262144
-1 -1 114 1;
#X floatatom 36 306 5 0 0 0 - - -;
#X text 34 247 Expression Lever;
#X obj 36 265 CC 11;
#X connect 0 0 1 0;
#X connect 1 0 2 0;
#X connect 3 0 28 0;
#X connect 4 0 27 0;
#X connect 8 0 9 0;
#X connect 10 0 11 0;
#X connect 12 0 13 0;
#X connect 17 0 8 0;
#X connect 18 0 12 0;
#X connect 19 0 10 0;
#X connect 20 0 21 0;
#X connect 20 0 26 0;
#X connect 24 0 4 0;
#X connect 24 1 3 0;
#X connect 25 0 20 0;
#X connect 29 0 30 0;
#X connect 32 0 29 0;
