#N canvas 2053 333 933 540 10;
#X obj 36 155 CC 18;
#X obj 39 176 hsl 128 15 0 5000 0 0 empty empty empty -2 -8 0 10 -262144
-1 -1 10114 1;
#X floatatom 36 196 5 0 0 0 - - -;
#X floatatom 536 113 0 0 0 0 - - -;
#X obj 517 62 notein;
#X floatatom 517 136 0 0 0 0 - - -;
#X floatatom 556 88 0 0 0 0 - - -;
#X text 566 114 velocity;
#X text 585 90 channel;
#X text 567 61 (omni);
#X text 547 136 note;
#X obj 507 205 print n;
#X obj 587 193 print v;
#X text 34 137 Raw Channel A;
#X obj 189 176 hsl 128 15 0 5000 0 0 empty empty empty -2 -8 0 10 -262144
-1 -1 10104 1;
#X floatatom 186 196 5 0 0 0 - - -;
#X obj 39 66 hsl 128 15 0 10000 0 0 empty empty empty -2 -8 0 10 -262144
-1 -1 1257 1;
#X floatatom 36 86 5 0 0 0 - - -;
#X obj 189 66 hsl 128 15 0 10000 0 0 empty empty empty -2 -8 0 10 -262144
-1 -1 12700 1;
#X floatatom 186 86 5 0 0 0 - - -;
#X text 184 137 Raw Channel B;
#X text 184 27 Processed Channel B;
#X text 34 27 Processed Channel A;
#X obj 186 155 CC 19;
#X obj 186 45 CC 17;
#X obj 36 45 CC 16;
#X connect 0 0 1 0;
#X connect 1 0 2 0;
#X connect 3 0 12 0;
#X connect 4 0 5 0;
#X connect 4 1 3 0;
#X connect 4 2 6 0;
#X connect 5 0 11 0;
#X connect 14 0 15 0;
#X connect 16 0 17 0;
#X connect 18 0 19 0;
#X connect 23 0 14 0;
#X connect 24 0 18 0;
#X connect 25 0 16 0;
