#N canvas 462 185 450 300 10;
#X obj 93 60 CC 16;
#X obj 99 100 hsl 128 15 0 5000 0 0 empty empty empty -2 -8 0 10 -262144
-1 -1 10188 1;
#X floatatom 95 147 5 0 0 0 - - -;
#X obj 289 64 CC 17;
#X obj 291 98 hsl 128 15 0 5000 0 0 empty empty empty -2 -8 0 10 -262144
-1 -1 135 1;
#X floatatom 287 145 5 0 0 0 - - -;
#X connect 0 0 1 0;
#X connect 1 0 2 0;
#X connect 3 0 4 0;
#X connect 4 0 5 0;
